<?xml version="1.0" encoding="UTF-8" standalone="no"?>
<!-- Created with Inkscape (http://www.inkscape.org/) -->

<svg
   width="1459.5758mm"
   height="277.42285mm"
   viewBox="0 0 1459.5758 277.42285"
   version="1.1"
   id="svg5"
   inkscape:version="1.1.2 (0a00cf5339, 2022-02-04)"
   sodipodi:docname="cluna-logo-monochrome-name-studio.svg"
   inkscape:export-filename="/home/damian/Downloads/cluna-logo-monochrome.png"
   inkscape:export-xdpi="96"
   inkscape:export-ydpi="96"
   xmlns:inkscape="http://www.inkscape.org/namespaces/inkscape"
   xmlns:sodipodi="http://sodipodi.sourceforge.net/DTD/sodipodi-0.dtd"
   xmlns="http://www.w3.org/2000/svg"
   xmlns:svg="http://www.w3.org/2000/svg">
  <sodipodi:namedview
     id="namedview7"
     pagecolor="#ffffff"
     bordercolor="#666666"
     borderopacity="1.0"
     inkscape:pageshadow="2"
     inkscape:pageopacity="0.0"
     inkscape:pagecheckerboard="true"
     inkscape:document-units="mm"
     showgrid="false"
     inkscape:zoom="0.20683379"
     inkscape:cx="2758.2534"
     inkscape:cy="524.5758"
     inkscape:window-width="1366"
     inkscape:window-height="634"
     inkscape:window-x="0"
     inkscape:window-y="27"
     inkscape:window-maximized="1"
     inkscape:current-layer="layer1"
     inkscape:snap-nodes="true"
     inkscape:snap-bbox="false"
     inkscape:bbox-paths="true"
     inkscape:bbox-nodes="true"
     inkscape:snap-bbox-edge-midpoints="true"
     inkscape:snap-bbox-midpoints="true"
     showguides="false" />
  <defs
     id="defs2">
    <rect
       x="415.17737"
       y="434.27637"
       width="548.52148"
       height="215.10168"
       id="rect229905" />
    <rect
       x="496.87616"
       y="393.88797"
       width="621.00214"
       height="267.33002"
       id="rect314858" />
    <inkscape:path-effect
       effect="bspline"
       id="path-effect6268"
       is_visible="true"
       lpeversion="1"
       weight="33.333333"
       steps="2"
       helper_size="0"
       apply_no_weight="true"
       apply_with_weight="true"
       only_selected="false" />
    <inkscape:path-effect
       effect="bspline"
       id="path-effect5403"
       is_visible="true"
       lpeversion="1"
       weight="33.333333"
       steps="2"
       helper_size="0"
       apply_no_weight="true"
       apply_with_weight="true"
       only_selected="false" />
    <inkscape:path-effect
       effect="bspline"
       id="path-effect5399"
       is_visible="true"
       lpeversion="1"
       weight="33.333333"
       steps="2"
       helper_size="0"
       apply_no_weight="true"
       apply_with_weight="true"
       only_selected="false" />
    <inkscape:path-effect
       effect="bspline"
       id="path-effect5395"
       is_visible="true"
       lpeversion="1"
       weight="33.333333"
       steps="2"
       helper_size="0"
       apply_no_weight="true"
       apply_with_weight="true"
       only_selected="false" />
    <inkscape:path-effect
       effect="bspline"
       id="path-effect4845"
       is_visible="true"
       lpeversion="1"
       weight="33.333333"
       steps="2"
       helper_size="0"
       apply_no_weight="true"
       apply_with_weight="true"
       only_selected="false" />
    <inkscape:path-effect
       effect="bspline"
       id="path-effect4841"
       is_visible="true"
       lpeversion="1"
       weight="33.333333"
       steps="2"
       helper_size="0"
       apply_no_weight="true"
       apply_with_weight="true"
       only_selected="false" />
    <inkscape:path-effect
       effect="bspline"
       id="path-effect4837"
       is_visible="true"
       lpeversion="1"
       weight="33.333333"
       steps="2"
       helper_size="0"
       apply_no_weight="true"
       apply_with_weight="true"
       only_selected="false" />
    <inkscape:path-effect
       effect="bspline"
       id="path-effect4800"
       is_visible="true"
       lpeversion="1"
       weight="33.333333"
       steps="2"
       helper_size="0"
       apply_no_weight="true"
       apply_with_weight="true"
       only_selected="false" />
    <inkscape:path-effect
       effect="bspline"
       id="path-effect4796"
       is_visible="true"
       lpeversion="1"
       weight="33.333333"
       steps="2"
       helper_size="0"
       apply_no_weight="true"
       apply_with_weight="true"
       only_selected="false" />
    <inkscape:path-effect
       effect="bspline"
       id="path-effect4792"
       is_visible="true"
       lpeversion="1"
       weight="33.333333"
       steps="2"
       helper_size="0"
       apply_no_weight="true"
       apply_with_weight="true"
       only_selected="false" />
    <inkscape:path-effect
       effect="bspline"
       id="path-effect4675"
       is_visible="true"
       lpeversion="1"
       weight="33.333333"
       steps="2"
       helper_size="0"
       apply_no_weight="true"
       apply_with_weight="true"
       only_selected="false" />
    <inkscape:path-effect
       effect="bspline"
       id="path-effect4671"
       is_visible="true"
       lpeversion="1"
       weight="33.333333"
       steps="2"
       helper_size="0"
       apply_no_weight="true"
       apply_with_weight="true"
       only_selected="false" />
    <inkscape:path-effect
       effect="bspline"
       id="path-effect4667"
       is_visible="true"
       lpeversion="1"
       weight="33.333333"
       steps="2"
       helper_size="0"
       apply_no_weight="true"
       apply_with_weight="true"
       only_selected="false" />
    <inkscape:path-effect
       effect="bspline"
       id="path-effect4663"
       is_visible="true"
       lpeversion="1"
       weight="33.333333"
       steps="2"
       helper_size="0"
       apply_no_weight="true"
       apply_with_weight="true"
       only_selected="false" />
    <inkscape:path-effect
       effect="bspline"
       id="path-effect4659"
       is_visible="true"
       lpeversion="1"
       weight="33.333333"
       steps="2"
       helper_size="0"
       apply_no_weight="true"
       apply_with_weight="true"
       only_selected="false" />
    <inkscape:path-effect
       effect="bspline"
       id="path-effect4542"
       is_visible="true"
       lpeversion="1"
       weight="33.333333"
       steps="2"
       helper_size="0"
       apply_no_weight="true"
       apply_with_weight="true"
       only_selected="false" />
    <inkscape:path-effect
       effect="bspline"
       id="path-effect4538"
       is_visible="true"
       lpeversion="1"
       weight="33.333333"
       steps="2"
       helper_size="0"
       apply_no_weight="true"
       apply_with_weight="true"
       only_selected="false" />
    <inkscape:path-effect
       effect="bspline"
       id="path-effect4501"
       is_visible="true"
       lpeversion="1"
       weight="33.333333"
       steps="2"
       helper_size="0"
       apply_no_weight="true"
       apply_with_weight="true"
       only_selected="false" />
    <inkscape:path-effect
       effect="bspline"
       id="path-effect4464"
       is_visible="true"
       lpeversion="1"
       weight="33.333333"
       steps="2"
       helper_size="0"
       apply_no_weight="true"
       apply_with_weight="true"
       only_selected="false" />
    <inkscape:path-effect
       effect="bspline"
       id="path-effect4427"
       is_visible="true"
       lpeversion="1"
       weight="33.333333"
       steps="2"
       helper_size="0"
       apply_no_weight="true"
       apply_with_weight="true"
       only_selected="false" />
    <inkscape:path-effect
       effect="bspline"
       id="path-effect4423"
       is_visible="true"
       lpeversion="1"
       weight="33.333333"
       steps="2"
       helper_size="0"
       apply_no_weight="true"
       apply_with_weight="true"
       only_selected="false" />
    <inkscape:path-effect
       effect="bspline"
       id="path-effect4386"
       is_visible="true"
       lpeversion="1"
       weight="33.333333"
       steps="2"
       helper_size="0"
       apply_no_weight="true"
       apply_with_weight="true"
       only_selected="false" />
    <inkscape:path-effect
       effect="bspline"
       id="path-effect4382"
       is_visible="true"
       lpeversion="1"
       weight="33.333333"
       steps="2"
       helper_size="0"
       apply_no_weight="true"
       apply_with_weight="true"
       only_selected="false" />
    <inkscape:path-effect
       effect="bspline"
       id="path-effect4247"
       is_visible="true"
       lpeversion="1"
       weight="33.333333"
       steps="2"
       helper_size="0"
       apply_no_weight="true"
       apply_with_weight="true"
       only_selected="false" />
    <inkscape:path-effect
       effect="bspline"
       id="path-effect3842"
       is_visible="true"
       lpeversion="1"
       weight="33.333333"
       steps="2"
       helper_size="0"
       apply_no_weight="true"
       apply_with_weight="true"
       only_selected="false" />
    <inkscape:path-effect
       effect="bspline"
       id="path-effect3838"
       is_visible="true"
       lpeversion="1"
       weight="33.333333"
       steps="2"
       helper_size="0"
       apply_no_weight="true"
       apply_with_weight="true"
       only_selected="false" />
    <inkscape:path-effect
       effect="bspline"
       id="path-effect3830"
       is_visible="true"
       lpeversion="1"
       weight="33.333333"
       steps="2"
       helper_size="0"
       apply_no_weight="true"
       apply_with_weight="true"
       only_selected="false" />
    <inkscape:path-effect
       effect="bspline"
       id="path-effect3826"
       is_visible="true"
       lpeversion="1"
       weight="33.333333"
       steps="2"
       helper_size="0"
       apply_no_weight="true"
       apply_with_weight="true"
       only_selected="false" />
    <inkscape:path-effect
       effect="bspline"
       id="path-effect3822"
       is_visible="true"
       lpeversion="1"
       weight="33.333333"
       steps="2"
       helper_size="0"
       apply_no_weight="true"
       apply_with_weight="true"
       only_selected="false" />
    <inkscape:path-effect
       effect="bspline"
       id="path-effect3818"
       is_visible="true"
       lpeversion="1"
       weight="33.333333"
       steps="2"
       helper_size="0"
       apply_no_weight="true"
       apply_with_weight="true"
       only_selected="false" />
    <inkscape:path-effect
       effect="bspline"
       id="path-effect3668"
       is_visible="true"
       lpeversion="1"
       weight="33.333333"
       steps="2"
       helper_size="0"
       apply_no_weight="true"
       apply_with_weight="true"
       only_selected="false" />
    <inkscape:path-effect
       effect="bspline"
       id="path-effect3551"
       is_visible="true"
       lpeversion="1"
       weight="33.333333"
       steps="2"
       helper_size="0"
       apply_no_weight="true"
       apply_with_weight="true"
       only_selected="false" />
    <rect
       x="566.1673"
       y="411.61032"
       width="605.72638"
       height="235.59872"
       id="rect2395" />
    <rect
       x="559.25464"
       y="389.33737"
       width="238.16766"
       height="150.20416"
       id="rect5283" />
    <rect
       x="566.1673"
       y="411.61032"
       width="605.72638"
       height="235.59872"
       id="rect2395-0" />
    <rect
       x="559.25464"
       y="389.33737"
       width="247.24223"
       height="46.837986"
       id="rect5283-7" />
    <rect
       x="566.1673"
       y="411.61032"
       width="605.72638"
       height="235.59872"
       id="rect2395-2" />
    <rect
       x="3181.5024"
       y="519.36053"
       width="1508.5142"
       height="204.72437"
       id="rect35798" />
  </defs>
  <g
     inkscape:label="Layer 1"
     inkscape:groupmode="layer"
     id="layer1"
     transform="translate(-130.58337,1.7106865)">
    <g
       id="g1045">
      <g
         aria-label="Studio"
         transform="matrix(1.10028,0,0,0.90885957,742.81446,-214.50724)"
         id="text240485"
         style="font-size:204.022px;line-height:1.25;font-family:Orbitron;-inkscape-font-specification:Orbitron;stroke-width:3.82257">
        <path
           d="m 100.3142,462.83444 q -6.732726,0 -12.445342,-3.26435 -5.508594,-3.26435 -8.772946,-8.77295 -3.264352,-5.71261 -3.264352,-12.44534 v -5.71261 h 16.525782 v 5.71261 q 0,3.26435 2.244242,5.71262 2.448264,2.24424 5.712616,2.24424 h 97.93056 q 3.26435,0 5.5086,-2.24424 2.44826,-2.44827 2.44826,-5.71262 v -32.84754 q 0,-3.26435 -2.44826,-5.50859 -2.24425,-2.24425 -5.5086,-2.24425 H 100.3142 q -6.732726,0 -12.445342,-3.26435 -5.508594,-3.46837 -8.772946,-8.97697 -3.264352,-5.50859 -3.264352,-12.24132 v -32.84754 q 0,-6.73273 3.264352,-12.24132 3.264352,-5.71262 8.772946,-8.97697 5.712616,-3.26435 12.445342,-3.26435 h 97.93056 q 6.73273,0 12.24132,3.26435 5.71262,3.26435 8.97697,8.97697 3.26435,5.50859 3.26435,12.24132 v 5.71262 h -16.52578 v -5.71262 q 0,-3.26435 -2.44826,-5.50859 -2.24425,-2.44827 -5.5086,-2.44827 H 100.3142 q -3.264352,0 -5.712616,2.44827 -2.244242,2.24424 -2.244242,5.50859 v 32.84754 q 0,3.26435 2.244242,5.5086 2.448264,2.24424 5.712616,2.24424 h 97.93056 q 6.73273,0 12.24132,3.46837 5.71262,3.26435 8.97697,8.77295 3.26435,5.50859 3.26435,12.24132 v 32.84754 q 0,6.73273 -3.26435,12.44534 -3.26435,5.5086 -8.97697,8.77295 -5.50859,3.26435 -12.24132,3.26435 z"
           id="path900" />
        <path
           d="m 268.63206,462.83444 q -6.93675,0 -12.64936,-3.26435 -5.5086,-3.46837 -8.77295,-8.97697 -3.26435,-5.71261 -3.26435,-12.44534 V 305.7375 h 16.7298 v 38.76418 h 51.20953 v 16.7298 H 260.6752 v 76.9163 q 0,3.26435 2.24425,5.71262 2.44826,2.24424 5.71261,2.24424 h 43.25267 v 16.7298 z"
           id="path902" />
        <path
           d="m 352.28105,462.83444 q -6.73273,0 -12.44534,-3.26435 -5.5086,-3.46837 -8.97697,-8.97697 -3.26435,-5.71261 -3.26435,-12.44534 v -93.6461 h 16.7298 v 93.6461 q 0,3.26435 2.24424,5.71262 2.44827,2.24424 5.71262,2.24424 h 70.99966 q 3.26435,0 5.71261,-2.24424 2.44827,-2.44827 2.44827,-5.71262 v -93.6461 h 16.7298 v 93.6461 q 0,6.73273 -3.46837,12.44534 -3.26436,5.5086 -8.97697,8.97697 -5.5086,3.26435 -12.44534,3.26435 z"
           id="path904" />
        <path
           d="m 490.19951,462.83444 q -6.93675,0 -12.64937,-3.26435 -5.50859,-3.46837 -8.97696,-8.97697 -3.26436,-5.71261 -3.26436,-12.44534 v -68.95944 q 0,-6.73272 3.26436,-12.24132 3.46837,-5.71261 8.97696,-8.97697 5.71262,-3.46837 12.64937,-3.46837 h 78.95651 V 305.7375 h 16.72981 v 157.09694 z m 0,-16.7298 h 70.99966 q 3.26435,0 5.50859,-2.24424 2.44826,-2.44827 2.44826,-5.71262 v -68.95944 q 0,-3.26435 -2.44826,-5.50859 -2.24424,-2.44827 -5.50859,-2.44827 h -70.99966 q -3.26435,0 -5.71262,2.44827 -2.24424,2.24424 -2.24424,5.50859 v 68.95944 q 0,3.26435 2.24424,5.71262 2.44827,2.24424 5.71262,2.24424 z"
           id="path906" />
        <path
           d="m 607.3081,462.83444 v 0 -118.33276 h 16.72981 v 118.33276 z m 0,-140.36714 v 0 -16.7298 h 16.72981 v 16.7298 z"
           id="path908" />
        <path
           d="m 674.22696,462.83444 q -6.73272,0 -12.44534,-3.26435 -5.50859,-3.46837 -8.97697,-8.97697 -3.26435,-5.71261 -3.26435,-12.44534 v -68.95944 q 0,-6.73272 3.26435,-12.24132 3.46838,-5.71261 8.97697,-8.97697 5.71262,-3.46837 12.44534,-3.46837 h 70.99966 q 6.93675,0 12.44534,3.46837 5.71262,3.26436 8.97697,8.97697 3.46837,5.5086 3.46837,12.24132 v 68.95944 q 0,6.73273 -3.46837,12.44534 -3.26435,5.5086 -8.97697,8.97697 -5.50859,3.26435 -12.44534,3.26435 z m 0,-16.7298 h 70.99966 q 3.26435,0 5.50859,-2.24424 2.44827,-2.44827 2.44827,-5.71262 v -68.95944 q 0,-3.26435 -2.44827,-5.50859 -2.24424,-2.44827 -5.50859,-2.44827 h -70.99966 q -3.26435,0 -5.71261,2.44827 -2.24425,2.24424 -2.24425,5.50859 v 68.95944 q 0,3.26435 2.24425,5.71262 2.44826,2.24424 5.71261,2.24424 z"
           id="path910" />
      </g>
      <g
         id="g227995"
         inkscape:export-filename="/home/damian/Downloads/g227995.png"
         inkscape:export-xdpi="3.1129375"
         inkscape:export-ydpi="3.1129375"
         transform="translate(50.080943,-7.339968)">
        <path
           style="fill:#000000;fill-opacity:1;stroke:none;stroke-width:0.264583px;stroke-linecap:butt;stroke-linejoin:miter;stroke-opacity:0"
           d="m 238.26089,232.2513 -12.3653,-17.29974 c 0,0 4.55197,-13.24073 12.08371,-14.66528 12.26866,9.4825 7.7386,6.97697 18.60491,19.45467 -0.69734,-10.13614 22.14732,-4.272 27.25194,-0.39416 10.26484,7.79791 25.7964,15.92712 32.29312,21.14598 -0.10834,0.25841 -6.51828,2.2922 -9.87881,3.0613 -11.04127,2.52696 -33.6013,5.06043 -33.6013,5.06043"
           id="path7860"
           sodipodi:nodetypes="ccccscac" />
        <path
           style="fill:#000000;fill-opacity:1;stroke:none;stroke-width:0.264583px;stroke-linecap:butt;stroke-linejoin:miter;stroke-opacity:1"
           d="m 189.47932,184.71969 30.02547,-19.98899 c 0,0 1.83312,11.00551 0.44359,16.23932 -1.16819,4.40009 3.42514,8.94026 5.26885,11.22092 4.16605,5.15343 7.95267,11.05804 7.95267,11.05804 l -7.01148,12.04166 z"
           id="path6927"
           sodipodi:nodetypes="ccssccc" />
        <path
           style="fill:#000000;fill-opacity:1;stroke:none;stroke-width:0.256;stroke-linecap:butt;stroke-linejoin:miter;stroke-miterlimit:4;stroke-dasharray:none;stroke-opacity:1"
           d="m 219.50479,164.7307 53.73755,50.69557 -22.4967,7.48166 2.36594,-15.15388 -35.96892,-36.97765 z"
           id="path6937"
           sodipodi:nodetypes="cccccc" />
        <path
           id="path2080"
           style="fill:#000000;fill-opacity:1;fill-rule:evenodd;stroke:none;stroke-width:0;stroke-linecap:round;stroke-linejoin:round;paint-order:markers fill stroke"
           d="M 227.24903,5.6292815 C 188.32941,5.6292517 151.00383,20.243439 123.4835,46.256883 95.963165,72.270327 80.502412,107.55214 80.502432,144.34071 c -1.7e-5,36.78857 15.460737,72.07038 42.981068,98.08382 27.52033,26.01344 64.84591,40.62762 103.76553,40.6276 45.43464,-0.0246 88.29477,-19.94118 116.06371,-53.93313 -17.68662,10.17068 -38.03309,15.56602 -58.79072,15.58974 -7.62592,-0.0906 -15.22228,-0.90623 -22.672,-2.43447 0.78147,0.49088 -27.25402,-16.03025 -37.25187,-20.16108 -4.96881,-2.05298 -37.70992,-13.7443 -37.70992,-13.7443 0,0 -2.69246,9.09864 -2.6496,11.07603 -4.47789,-5.50683 -20.58727,-26.06328 -20.58727,-26.06328 0,0 -2.65215,-10.43725 -6.08894,-14.3237 -3.43396,-3.88325 -13.46009,-7.78918 -13.46009,-7.78918 l -11.38858,-5.97622 -42.836247,24.60896 70.414857,-57.76024 12.30981,11.35051 c 0,0 11.20473,-58.907217 32.31676,-78.668874 21.11203,-19.761658 49.74614,-30.863619 79.60309,-30.863561 13.93418,0.0028 27.74671,2.427034 40.73549,7.149433 C 298.332,18.266462 263.4285,5.6312476 227.24903,5.6292815 Z M 172.6024,143.46768 c 1.12209,5.4606 2.01902,15.52459 2.01902,15.52459 l 14.8579,25.72742 9.56575,-4.61957 z M 161.05979,54.901725 c 0.24849,1.3e-4 0.49476,0.04816 0.72605,0.141594 1.02233,0.412703 1.52577,1.5996 1.12448,2.651001 -0.40147,1.051189 -1.55544,1.56872 -2.57762,1.156002 -1.02233,-0.412703 -1.52577,-1.5996 -1.12448,-2.651001 0.29897,-0.782992 1.03363,-1.29785 1.85157,-1.297596 z m -39.43067,9.491927 c 0.24867,6.3e-5 0.49512,0.04809 0.72657,0.141594 1.02212,0.412914 1.52531,1.599748 1.12396,2.651001 -0.40147,1.051189 -1.55544,1.568717 -2.57762,1.156001 -1.02212,-0.412914 -1.52531,-1.599747 -1.12396,-2.651 0.29891,-0.782812 1.0333,-1.297631 1.85105,-1.297596 z m 46.55737,19.986376 c 0.24863,-1.01e-4 0.49508,0.04775 0.72656,0.141078 1.0224,0.412912 1.52565,1.600116 1.12397,2.651517 -0.40147,1.051189 -1.55544,1.56872 -2.57762,1.156002 -1.02233,-0.412703 -1.52578,-1.5996 -1.12448,-2.651001 0.29897,-0.782992 1.03363,-1.29785 1.85157,-1.297596 z m -47.55731,27.537852 c 0.24864,-1e-4 0.49509,0.0478 0.72657,0.14108 1.02233,0.4127 1.52577,1.5996 1.12448,2.651 -0.40127,1.05168 -1.55567,1.56953 -2.57814,1.15652 -1.02212,-0.41292 -1.52531,-1.59975 -1.12396,-2.651 0.29891,-0.78281 1.0333,-1.29763 1.85105,-1.2976 z"
           sodipodi:nodetypes="cscsccccscccacccccsccccccccccccccsccccscccccccccccc"
           inkscape:export-filename="/home/damian/Downloads/path2080.png"
           inkscape:export-xdpi="96"
           inkscape:export-ydpi="96" />
        <path
           style="fill:#000000;fill-opacity:1;stroke:none;stroke-width:0.264583px;stroke-linecap:butt;stroke-linejoin:miter;stroke-opacity:0"
           d="m 315.84345,254.8389 c -4.36074,3.72239 -20.58447,12.96419 -31.84817,17.35839 -12.53876,4.89163 -25.83818,7.96209 -39.17265,9.78979 -8.82917,1.21018 -17.34624,1.18169 -26.72503,0.7361 l -41.66773,-55.14865 18.02426,-14.819 c 0,0 30.315,17.76511 46.69998,23.85434 24.02199,8.92742 74.68934,18.22903 74.68934,18.22903 z"
           id="path7895"
           sodipodi:nodetypes="caacccac" />
      </g>
      <g
         aria-label="luna "
         transform="matrix(5.1005584,0,0,5.1005584,-1836.6641,-2198.9024)"
         id="text229903"
         style="font-size:40px;line-height:1.25;font-family:Orbitron;-inkscape-font-specification:Orbitron;white-space:pre;shape-inside:url(#rect229905)">
        <path
           d="m 422.09773,471.52615 q -1.32,0 -2.44,-0.64 -1.08,-0.68 -1.76,-1.76 -0.64,-1.12 -0.64,-2.44 v -25.96 h 3.28 v 25.96 q 0,0.64 0.44,1.12 0.48,0.44 1.12,0.44 h 3.92 v 3.28 z"
           id="path873" />
        <path
           d="m 434.21766,471.52615 q -1.32,0 -2.44,-0.64 -1.08,-0.68 -1.76,-1.76 -0.64,-1.12 -0.64,-2.44 v -18.36 h 3.28 v 18.36 q 0,0.64 0.44,1.12 0.48,0.44 1.12,0.44 h 13.92 q 0.64,0 1.12,-0.44 0.48,-0.48 0.48,-1.12 v -18.36 h 3.28 v 18.36 q 0,1.32 -0.68,2.44 -0.64,1.08 -1.76,1.76 -1.08,0.64 -2.44,0.64 z"
           id="path875" />
        <path
           d="m 457.41761,471.52615 v 0 -23.2 h 18.8 q 1.32,0 2.4,0.68 1.12,0.64 1.76,1.76 0.68,1.08 0.68,2.4 v 18.36 h -3.28 v -18.36 q 0,-0.64 -0.48,-1.08 -0.44,-0.48 -1.08,-0.48 h -13.92 q -0.64,0 -1.12,0.48 -0.48,0.44 -0.48,1.08 v 18.36 z"
           id="path877" />
        <path
           d="m 490.01758,471.52615 q -1.32,0 -2.44,-0.64 -1.08,-0.68 -1.76,-1.76 -0.64,-1.12 -0.64,-2.44 v -8.4 h 20.32 v -5.12 q 0,-0.64 -0.48,-1.08 -0.44,-0.48 -1.08,-0.48 h -18.76 v -3.28 h 18.76 q 1.36,0 2.44,0.68 1.12,0.64 1.76,1.76 0.68,1.08 0.68,2.4 v 18.36 z m 0,-3.28 h 15.48 v -6.68 h -17.04 v 5.12 q 0,0.64 0.44,1.12 0.48,0.44 1.12,0.44 z"
           id="path879" />
      </g>
      <text
         xml:space="preserve"
         transform="matrix(0.26458333,0,0,0.26458333,79.568562,-1.710688)"
         id="text2393"
         style="font-style:normal;font-variant:normal;font-weight:normal;font-stretch:normal;font-size:40px;line-height:1.25;font-family:Orbitron;-inkscape-font-specification:Orbitron;white-space:pre;shape-inside:url(#rect2395);opacity:0.49413;fill:#000000;fill-opacity:1;stroke:none" />
    </g>
  </g>
</svg>
